<mxfile host="app.diagrams.net" agent="Mozilla/5.0 (Macintosh; Intel Mac OS X 10_15_7) AppleWebKit/537.36 (KHTML, like Gecko) Chrome/128.0.0.0 Safari/537.36" version="26.0.4" pages="2">
  <diagram name="DELETE" id="1iWNinh8XPXz3P3ZFrVE">
    <mxGraphModel dx="1379" dy="644" grid="1" gridSize="10" guides="1" tooltips="1" connect="1" arrows="1" fold="1" page="1" pageScale="1" pageWidth="1350" pageHeight="1200" math="0" shadow="0">
      <root>
        <mxCell id="0" />
        <mxCell id="1" parent="0" />
        <mxCell id="ES_0mSyxqrA8o74wXQu3-1" value="" style="shape=table;startSize=0;container=1;collapsible=0;childLayout=tableLayout;" vertex="1" parent="1">
          <mxGeometry x="40" y="40" width="200" height="130" as="geometry" />
        </mxCell>
        <mxCell id="ES_0mSyxqrA8o74wXQu3-2" value="" style="shape=tableRow;horizontal=0;startSize=0;swimlaneHead=0;swimlaneBody=0;strokeColor=inherit;top=0;left=0;bottom=0;right=0;collapsible=0;dropTarget=0;fillColor=none;points=[[0,0.5],[1,0.5]];portConstraint=eastwest;" vertex="1" parent="ES_0mSyxqrA8o74wXQu3-1">
          <mxGeometry width="200" height="22" as="geometry" />
        </mxCell>
        <mxCell id="ES_0mSyxqrA8o74wXQu3-3" value="Name" style="shape=partialRectangle;html=1;whiteSpace=wrap;connectable=0;strokeColor=#666666;overflow=hidden;fillColor=#f5f5f5;top=0;left=0;bottom=0;right=0;pointerEvents=1;fontColor=#333333;" vertex="1" parent="ES_0mSyxqrA8o74wXQu3-2">
          <mxGeometry width="67" height="22" as="geometry">
            <mxRectangle width="67" height="22" as="alternateBounds" />
          </mxGeometry>
        </mxCell>
        <mxCell id="ES_0mSyxqrA8o74wXQu3-4" value="Gender" style="shape=partialRectangle;html=1;whiteSpace=wrap;connectable=0;strokeColor=#666666;overflow=hidden;fillColor=#f5f5f5;top=0;left=0;bottom=0;right=0;pointerEvents=1;fontColor=#333333;" vertex="1" parent="ES_0mSyxqrA8o74wXQu3-2">
          <mxGeometry x="67" width="66" height="22" as="geometry">
            <mxRectangle width="66" height="22" as="alternateBounds" />
          </mxGeometry>
        </mxCell>
        <mxCell id="ES_0mSyxqrA8o74wXQu3-5" value="Age" style="shape=partialRectangle;html=1;whiteSpace=wrap;connectable=0;strokeColor=#666666;overflow=hidden;fillColor=#f5f5f5;top=0;left=0;bottom=0;right=0;pointerEvents=1;fontColor=#333333;" vertex="1" parent="ES_0mSyxqrA8o74wXQu3-2">
          <mxGeometry x="133" width="67" height="22" as="geometry">
            <mxRectangle width="67" height="22" as="alternateBounds" />
          </mxGeometry>
        </mxCell>
        <mxCell id="ES_0mSyxqrA8o74wXQu3-6" value="" style="shape=tableRow;horizontal=0;startSize=0;swimlaneHead=0;swimlaneBody=0;strokeColor=inherit;top=0;left=0;bottom=0;right=0;collapsible=0;dropTarget=0;fillColor=none;points=[[0,0.5],[1,0.5]];portConstraint=eastwest;" vertex="1" parent="ES_0mSyxqrA8o74wXQu3-1">
          <mxGeometry y="22" width="200" height="21" as="geometry" />
        </mxCell>
        <mxCell id="ES_0mSyxqrA8o74wXQu3-7" value="Alex" style="shape=partialRectangle;html=1;whiteSpace=wrap;connectable=0;strokeColor=inherit;overflow=hidden;fillColor=none;top=0;left=0;bottom=0;right=0;pointerEvents=1;" vertex="1" parent="ES_0mSyxqrA8o74wXQu3-6">
          <mxGeometry width="67" height="21" as="geometry">
            <mxRectangle width="67" height="21" as="alternateBounds" />
          </mxGeometry>
        </mxCell>
        <mxCell id="ES_0mSyxqrA8o74wXQu3-8" value="Male x 3" style="shape=partialRectangle;html=1;whiteSpace=wrap;connectable=0;strokeColor=inherit;overflow=hidden;fillColor=none;top=0;left=0;bottom=0;right=0;pointerEvents=1;" vertex="1" parent="ES_0mSyxqrA8o74wXQu3-6">
          <mxGeometry x="67" width="66" height="21" as="geometry">
            <mxRectangle width="66" height="21" as="alternateBounds" />
          </mxGeometry>
        </mxCell>
        <mxCell id="ES_0mSyxqrA8o74wXQu3-9" value="12 x 5" style="shape=partialRectangle;html=1;whiteSpace=wrap;connectable=0;strokeColor=inherit;overflow=hidden;fillColor=none;top=0;left=0;bottom=0;right=0;pointerEvents=1;" vertex="1" parent="ES_0mSyxqrA8o74wXQu3-6">
          <mxGeometry x="133" width="67" height="21" as="geometry">
            <mxRectangle width="67" height="21" as="alternateBounds" />
          </mxGeometry>
        </mxCell>
        <mxCell id="ES_0mSyxqrA8o74wXQu3-10" value="" style="shape=tableRow;horizontal=0;startSize=0;swimlaneHead=0;swimlaneBody=0;strokeColor=inherit;top=0;left=0;bottom=0;right=0;collapsible=0;dropTarget=0;fillColor=none;points=[[0,0.5],[1,0.5]];portConstraint=eastwest;" vertex="1" parent="ES_0mSyxqrA8o74wXQu3-1">
          <mxGeometry y="43" width="200" height="22" as="geometry" />
        </mxCell>
        <mxCell id="ES_0mSyxqrA8o74wXQu3-11" value="Andre" style="shape=partialRectangle;html=1;whiteSpace=wrap;connectable=0;strokeColor=inherit;overflow=hidden;fillColor=none;top=0;left=0;bottom=0;right=0;pointerEvents=1;" vertex="1" parent="ES_0mSyxqrA8o74wXQu3-10">
          <mxGeometry width="67" height="22" as="geometry">
            <mxRectangle width="67" height="22" as="alternateBounds" />
          </mxGeometry>
        </mxCell>
        <mxCell id="ES_0mSyxqrA8o74wXQu3-12" value="Female x 1" style="shape=partialRectangle;html=1;whiteSpace=wrap;connectable=0;strokeColor=inherit;overflow=hidden;fillColor=none;top=0;left=0;bottom=0;right=0;pointerEvents=1;" vertex="1" parent="ES_0mSyxqrA8o74wXQu3-10">
          <mxGeometry x="67" width="66" height="22" as="geometry">
            <mxRectangle width="66" height="22" as="alternateBounds" />
          </mxGeometry>
        </mxCell>
        <mxCell id="ES_0mSyxqrA8o74wXQu3-13" value="" style="shape=partialRectangle;html=1;whiteSpace=wrap;connectable=0;strokeColor=inherit;overflow=hidden;fillColor=none;top=0;left=0;bottom=0;right=0;pointerEvents=1;" vertex="1" parent="ES_0mSyxqrA8o74wXQu3-10">
          <mxGeometry x="133" width="67" height="22" as="geometry">
            <mxRectangle width="67" height="22" as="alternateBounds" />
          </mxGeometry>
        </mxCell>
        <mxCell id="ES_0mSyxqrA8o74wXQu3-14" value="" style="shape=tableRow;horizontal=0;startSize=0;swimlaneHead=0;swimlaneBody=0;strokeColor=inherit;top=0;left=0;bottom=0;right=0;collapsible=0;dropTarget=0;fillColor=none;points=[[0,0.5],[1,0.5]];portConstraint=eastwest;" vertex="1" parent="ES_0mSyxqrA8o74wXQu3-1">
          <mxGeometry y="65" width="200" height="22" as="geometry" />
        </mxCell>
        <mxCell id="ES_0mSyxqrA8o74wXQu3-15" value="Brian" style="shape=partialRectangle;html=1;whiteSpace=wrap;connectable=0;strokeColor=inherit;overflow=hidden;fillColor=none;top=0;left=0;bottom=0;right=0;pointerEvents=1;" vertex="1" parent="ES_0mSyxqrA8o74wXQu3-14">
          <mxGeometry width="67" height="22" as="geometry">
            <mxRectangle width="67" height="22" as="alternateBounds" />
          </mxGeometry>
        </mxCell>
        <mxCell id="ES_0mSyxqrA8o74wXQu3-16" value="Male x 1" style="shape=partialRectangle;html=1;whiteSpace=wrap;connectable=0;strokeColor=inherit;overflow=hidden;fillColor=none;top=0;left=0;bottom=0;right=0;pointerEvents=1;" vertex="1" parent="ES_0mSyxqrA8o74wXQu3-14">
          <mxGeometry x="67" width="66" height="22" as="geometry">
            <mxRectangle width="66" height="22" as="alternateBounds" />
          </mxGeometry>
        </mxCell>
        <mxCell id="ES_0mSyxqrA8o74wXQu3-17" value="" style="shape=partialRectangle;html=1;whiteSpace=wrap;connectable=0;strokeColor=inherit;overflow=hidden;fillColor=none;top=0;left=0;bottom=0;right=0;pointerEvents=1;" vertex="1" parent="ES_0mSyxqrA8o74wXQu3-14">
          <mxGeometry x="133" width="67" height="22" as="geometry">
            <mxRectangle width="67" height="22" as="alternateBounds" />
          </mxGeometry>
        </mxCell>
        <mxCell id="ES_0mSyxqrA8o74wXQu3-18" value="" style="shape=tableRow;horizontal=0;startSize=0;swimlaneHead=0;swimlaneBody=0;strokeColor=inherit;top=0;left=0;bottom=0;right=0;collapsible=0;dropTarget=0;fillColor=none;points=[[0,0.5],[1,0.5]];portConstraint=eastwest;" vertex="1" parent="ES_0mSyxqrA8o74wXQu3-1">
          <mxGeometry y="87" width="200" height="21" as="geometry" />
        </mxCell>
        <mxCell id="ES_0mSyxqrA8o74wXQu3-19" value="Mary" style="shape=partialRectangle;html=1;whiteSpace=wrap;connectable=0;strokeColor=inherit;overflow=hidden;fillColor=none;top=0;left=0;bottom=0;right=0;pointerEvents=1;" vertex="1" parent="ES_0mSyxqrA8o74wXQu3-18">
          <mxGeometry width="67" height="21" as="geometry">
            <mxRectangle width="67" height="21" as="alternateBounds" />
          </mxGeometry>
        </mxCell>
        <mxCell id="ES_0mSyxqrA8o74wXQu3-20" value="" style="shape=partialRectangle;html=1;whiteSpace=wrap;connectable=0;strokeColor=inherit;overflow=hidden;fillColor=none;top=0;left=0;bottom=0;right=0;pointerEvents=1;" vertex="1" parent="ES_0mSyxqrA8o74wXQu3-18">
          <mxGeometry x="67" width="66" height="21" as="geometry">
            <mxRectangle width="66" height="21" as="alternateBounds" />
          </mxGeometry>
        </mxCell>
        <mxCell id="ES_0mSyxqrA8o74wXQu3-21" value="" style="shape=partialRectangle;html=1;whiteSpace=wrap;connectable=0;strokeColor=inherit;overflow=hidden;fillColor=none;top=0;left=0;bottom=0;right=0;pointerEvents=1;" vertex="1" parent="ES_0mSyxqrA8o74wXQu3-18">
          <mxGeometry x="133" width="67" height="21" as="geometry">
            <mxRectangle width="67" height="21" as="alternateBounds" />
          </mxGeometry>
        </mxCell>
        <mxCell id="ES_0mSyxqrA8o74wXQu3-22" value="" style="shape=tableRow;horizontal=0;startSize=0;swimlaneHead=0;swimlaneBody=0;strokeColor=inherit;top=0;left=0;bottom=0;right=0;collapsible=0;dropTarget=0;fillColor=none;points=[[0,0.5],[1,0.5]];portConstraint=eastwest;" vertex="1" parent="ES_0mSyxqrA8o74wXQu3-1">
          <mxGeometry y="108" width="200" height="22" as="geometry" />
        </mxCell>
        <mxCell id="ES_0mSyxqrA8o74wXQu3-23" value="Peter" style="shape=partialRectangle;html=1;whiteSpace=wrap;connectable=0;strokeColor=inherit;overflow=hidden;fillColor=none;top=0;left=0;bottom=0;right=0;pointerEvents=1;" vertex="1" parent="ES_0mSyxqrA8o74wXQu3-22">
          <mxGeometry width="67" height="22" as="geometry">
            <mxRectangle width="67" height="22" as="alternateBounds" />
          </mxGeometry>
        </mxCell>
        <mxCell id="ES_0mSyxqrA8o74wXQu3-24" value="" style="shape=partialRectangle;html=1;whiteSpace=wrap;connectable=0;strokeColor=inherit;overflow=hidden;fillColor=none;top=0;left=0;bottom=0;right=0;pointerEvents=1;" vertex="1" parent="ES_0mSyxqrA8o74wXQu3-22">
          <mxGeometry x="67" width="66" height="22" as="geometry">
            <mxRectangle width="66" height="22" as="alternateBounds" />
          </mxGeometry>
        </mxCell>
        <mxCell id="ES_0mSyxqrA8o74wXQu3-25" value="" style="shape=partialRectangle;html=1;whiteSpace=wrap;connectable=0;strokeColor=inherit;overflow=hidden;fillColor=none;top=0;left=0;bottom=0;right=0;pointerEvents=1;" vertex="1" parent="ES_0mSyxqrA8o74wXQu3-22">
          <mxGeometry x="133" width="67" height="22" as="geometry">
            <mxRectangle width="67" height="22" as="alternateBounds" />
          </mxGeometry>
        </mxCell>
        <mxCell id="ES_0mSyxqrA8o74wXQu3-26" value="DELETE FROM Student WHERE Name = &#39;Andre&#39;" style="rounded=1;whiteSpace=wrap;html=1;" vertex="1" parent="1">
          <mxGeometry x="280" y="159" width="160" height="60" as="geometry" />
        </mxCell>
        <mxCell id="ES_0mSyxqrA8o74wXQu3-77" value="" style="shape=table;startSize=0;container=1;collapsible=0;childLayout=tableLayout;" vertex="1" parent="1">
          <mxGeometry x="40" y="200" width="200" height="130" as="geometry" />
        </mxCell>
        <mxCell id="ES_0mSyxqrA8o74wXQu3-78" value="" style="shape=tableRow;horizontal=0;startSize=0;swimlaneHead=0;swimlaneBody=0;strokeColor=inherit;top=0;left=0;bottom=0;right=0;collapsible=0;dropTarget=0;fillColor=none;points=[[0,0.5],[1,0.5]];portConstraint=eastwest;" vertex="1" parent="ES_0mSyxqrA8o74wXQu3-77">
          <mxGeometry width="200" height="22" as="geometry" />
        </mxCell>
        <mxCell id="ES_0mSyxqrA8o74wXQu3-79" value="Name" style="shape=partialRectangle;html=1;whiteSpace=wrap;connectable=0;strokeColor=#666666;overflow=hidden;fillColor=#f5f5f5;top=0;left=0;bottom=0;right=0;pointerEvents=1;fontColor=#333333;" vertex="1" parent="ES_0mSyxqrA8o74wXQu3-78">
          <mxGeometry width="67" height="22" as="geometry">
            <mxRectangle width="67" height="22" as="alternateBounds" />
          </mxGeometry>
        </mxCell>
        <mxCell id="ES_0mSyxqrA8o74wXQu3-80" value="Gender" style="shape=partialRectangle;html=1;whiteSpace=wrap;connectable=0;strokeColor=#666666;overflow=hidden;fillColor=#f5f5f5;top=0;left=0;bottom=0;right=0;pointerEvents=1;fontColor=#333333;" vertex="1" parent="ES_0mSyxqrA8o74wXQu3-78">
          <mxGeometry x="67" width="66" height="22" as="geometry">
            <mxRectangle width="66" height="22" as="alternateBounds" />
          </mxGeometry>
        </mxCell>
        <mxCell id="ES_0mSyxqrA8o74wXQu3-81" value="Age" style="shape=partialRectangle;html=1;whiteSpace=wrap;connectable=0;strokeColor=#666666;overflow=hidden;fillColor=#f5f5f5;top=0;left=0;bottom=0;right=0;pointerEvents=1;fontColor=#333333;" vertex="1" parent="ES_0mSyxqrA8o74wXQu3-78">
          <mxGeometry x="133" width="67" height="22" as="geometry">
            <mxRectangle width="67" height="22" as="alternateBounds" />
          </mxGeometry>
        </mxCell>
        <mxCell id="ES_0mSyxqrA8o74wXQu3-82" value="" style="shape=tableRow;horizontal=0;startSize=0;swimlaneHead=0;swimlaneBody=0;strokeColor=inherit;top=0;left=0;bottom=0;right=0;collapsible=0;dropTarget=0;fillColor=none;points=[[0,0.5],[1,0.5]];portConstraint=eastwest;" vertex="1" parent="ES_0mSyxqrA8o74wXQu3-77">
          <mxGeometry y="22" width="200" height="21" as="geometry" />
        </mxCell>
        <mxCell id="ES_0mSyxqrA8o74wXQu3-83" value="Stacy" style="shape=partialRectangle;html=1;whiteSpace=wrap;connectable=0;strokeColor=inherit;overflow=hidden;fillColor=none;top=0;left=0;bottom=0;right=0;pointerEvents=1;" vertex="1" parent="ES_0mSyxqrA8o74wXQu3-82">
          <mxGeometry width="67" height="21" as="geometry">
            <mxRectangle width="67" height="21" as="alternateBounds" />
          </mxGeometry>
        </mxCell>
        <mxCell id="ES_0mSyxqrA8o74wXQu3-84" value="Female x 1" style="shape=partialRectangle;html=1;whiteSpace=wrap;connectable=0;strokeColor=inherit;overflow=hidden;fillColor=none;top=0;left=0;bottom=0;right=0;pointerEvents=1;" vertex="1" parent="ES_0mSyxqrA8o74wXQu3-82">
          <mxGeometry x="67" width="66" height="21" as="geometry">
            <mxRectangle width="66" height="21" as="alternateBounds" />
          </mxGeometry>
        </mxCell>
        <mxCell id="ES_0mSyxqrA8o74wXQu3-85" value="12 x 3" style="shape=partialRectangle;html=1;whiteSpace=wrap;connectable=0;strokeColor=inherit;overflow=hidden;fillColor=none;top=0;left=0;bottom=0;right=0;pointerEvents=1;" vertex="1" parent="ES_0mSyxqrA8o74wXQu3-82">
          <mxGeometry x="133" width="67" height="21" as="geometry">
            <mxRectangle width="67" height="21" as="alternateBounds" />
          </mxGeometry>
        </mxCell>
        <mxCell id="ES_0mSyxqrA8o74wXQu3-86" value="" style="shape=tableRow;horizontal=0;startSize=0;swimlaneHead=0;swimlaneBody=0;strokeColor=inherit;top=0;left=0;bottom=0;right=0;collapsible=0;dropTarget=0;fillColor=none;points=[[0,0.5],[1,0.5]];portConstraint=eastwest;" vertex="1" parent="ES_0mSyxqrA8o74wXQu3-77">
          <mxGeometry y="43" width="200" height="22" as="geometry" />
        </mxCell>
        <mxCell id="ES_0mSyxqrA8o74wXQu3-87" value="Steve" style="shape=partialRectangle;html=1;whiteSpace=wrap;connectable=0;strokeColor=inherit;overflow=hidden;fillColor=none;top=0;left=0;bottom=0;right=0;pointerEvents=1;" vertex="1" parent="ES_0mSyxqrA8o74wXQu3-86">
          <mxGeometry width="67" height="22" as="geometry">
            <mxRectangle width="67" height="22" as="alternateBounds" />
          </mxGeometry>
        </mxCell>
        <mxCell id="ES_0mSyxqrA8o74wXQu3-88" value="Male x 2" style="shape=partialRectangle;html=1;whiteSpace=wrap;connectable=0;strokeColor=inherit;overflow=hidden;fillColor=none;top=0;left=0;bottom=0;right=0;pointerEvents=1;" vertex="1" parent="ES_0mSyxqrA8o74wXQu3-86">
          <mxGeometry x="67" width="66" height="22" as="geometry">
            <mxRectangle width="66" height="22" as="alternateBounds" />
          </mxGeometry>
        </mxCell>
        <mxCell id="ES_0mSyxqrA8o74wXQu3-89" value="" style="shape=partialRectangle;html=1;whiteSpace=wrap;connectable=0;strokeColor=inherit;overflow=hidden;fillColor=none;top=0;left=0;bottom=0;right=0;pointerEvents=1;" vertex="1" parent="ES_0mSyxqrA8o74wXQu3-86">
          <mxGeometry x="133" width="67" height="22" as="geometry">
            <mxRectangle width="67" height="22" as="alternateBounds" />
          </mxGeometry>
        </mxCell>
        <mxCell id="ES_0mSyxqrA8o74wXQu3-90" value="" style="shape=tableRow;horizontal=0;startSize=0;swimlaneHead=0;swimlaneBody=0;strokeColor=inherit;top=0;left=0;bottom=0;right=0;collapsible=0;dropTarget=0;fillColor=none;points=[[0,0.5],[1,0.5]];portConstraint=eastwest;" vertex="1" parent="ES_0mSyxqrA8o74wXQu3-77">
          <mxGeometry y="65" width="200" height="22" as="geometry" />
        </mxCell>
        <mxCell id="ES_0mSyxqrA8o74wXQu3-91" value="Zack" style="shape=partialRectangle;html=1;whiteSpace=wrap;connectable=0;strokeColor=inherit;overflow=hidden;fillColor=none;top=0;left=0;bottom=0;right=0;pointerEvents=1;" vertex="1" parent="ES_0mSyxqrA8o74wXQu3-90">
          <mxGeometry width="67" height="22" as="geometry">
            <mxRectangle width="67" height="22" as="alternateBounds" />
          </mxGeometry>
        </mxCell>
        <mxCell id="ES_0mSyxqrA8o74wXQu3-92" value="" style="shape=partialRectangle;html=1;whiteSpace=wrap;connectable=0;strokeColor=inherit;overflow=hidden;fillColor=none;top=0;left=0;bottom=0;right=0;pointerEvents=1;" vertex="1" parent="ES_0mSyxqrA8o74wXQu3-90">
          <mxGeometry x="67" width="66" height="22" as="geometry">
            <mxRectangle width="66" height="22" as="alternateBounds" />
          </mxGeometry>
        </mxCell>
        <mxCell id="ES_0mSyxqrA8o74wXQu3-93" value="" style="shape=partialRectangle;html=1;whiteSpace=wrap;connectable=0;strokeColor=inherit;overflow=hidden;fillColor=none;top=0;left=0;bottom=0;right=0;pointerEvents=1;" vertex="1" parent="ES_0mSyxqrA8o74wXQu3-90">
          <mxGeometry x="133" width="67" height="22" as="geometry">
            <mxRectangle width="67" height="22" as="alternateBounds" />
          </mxGeometry>
        </mxCell>
        <mxCell id="ES_0mSyxqrA8o74wXQu3-94" value="" style="shape=tableRow;horizontal=0;startSize=0;swimlaneHead=0;swimlaneBody=0;strokeColor=inherit;top=0;left=0;bottom=0;right=0;collapsible=0;dropTarget=0;fillColor=none;points=[[0,0.5],[1,0.5]];portConstraint=eastwest;" vertex="1" parent="ES_0mSyxqrA8o74wXQu3-77">
          <mxGeometry y="87" width="200" height="21" as="geometry" />
        </mxCell>
        <mxCell id="ES_0mSyxqrA8o74wXQu3-95" value="" style="shape=partialRectangle;html=1;whiteSpace=wrap;connectable=0;strokeColor=inherit;overflow=hidden;fillColor=none;top=0;left=0;bottom=0;right=0;pointerEvents=1;" vertex="1" parent="ES_0mSyxqrA8o74wXQu3-94">
          <mxGeometry width="67" height="21" as="geometry">
            <mxRectangle width="67" height="21" as="alternateBounds" />
          </mxGeometry>
        </mxCell>
        <mxCell id="ES_0mSyxqrA8o74wXQu3-96" value="" style="shape=partialRectangle;html=1;whiteSpace=wrap;connectable=0;strokeColor=inherit;overflow=hidden;fillColor=none;top=0;left=0;bottom=0;right=0;pointerEvents=1;" vertex="1" parent="ES_0mSyxqrA8o74wXQu3-94">
          <mxGeometry x="67" width="66" height="21" as="geometry">
            <mxRectangle width="66" height="21" as="alternateBounds" />
          </mxGeometry>
        </mxCell>
        <mxCell id="ES_0mSyxqrA8o74wXQu3-97" value="" style="shape=partialRectangle;html=1;whiteSpace=wrap;connectable=0;strokeColor=inherit;overflow=hidden;fillColor=none;top=0;left=0;bottom=0;right=0;pointerEvents=1;" vertex="1" parent="ES_0mSyxqrA8o74wXQu3-94">
          <mxGeometry x="133" width="67" height="21" as="geometry">
            <mxRectangle width="67" height="21" as="alternateBounds" />
          </mxGeometry>
        </mxCell>
        <mxCell id="ES_0mSyxqrA8o74wXQu3-98" value="" style="shape=tableRow;horizontal=0;startSize=0;swimlaneHead=0;swimlaneBody=0;strokeColor=inherit;top=0;left=0;bottom=0;right=0;collapsible=0;dropTarget=0;fillColor=none;points=[[0,0.5],[1,0.5]];portConstraint=eastwest;" vertex="1" parent="ES_0mSyxqrA8o74wXQu3-77">
          <mxGeometry y="108" width="200" height="22" as="geometry" />
        </mxCell>
        <mxCell id="ES_0mSyxqrA8o74wXQu3-99" value="" style="shape=partialRectangle;html=1;whiteSpace=wrap;connectable=0;strokeColor=inherit;overflow=hidden;fillColor=none;top=0;left=0;bottom=0;right=0;pointerEvents=1;" vertex="1" parent="ES_0mSyxqrA8o74wXQu3-98">
          <mxGeometry width="67" height="22" as="geometry">
            <mxRectangle width="67" height="22" as="alternateBounds" />
          </mxGeometry>
        </mxCell>
        <mxCell id="ES_0mSyxqrA8o74wXQu3-100" value="" style="shape=partialRectangle;html=1;whiteSpace=wrap;connectable=0;strokeColor=inherit;overflow=hidden;fillColor=none;top=0;left=0;bottom=0;right=0;pointerEvents=1;" vertex="1" parent="ES_0mSyxqrA8o74wXQu3-98">
          <mxGeometry x="67" width="66" height="22" as="geometry">
            <mxRectangle width="66" height="22" as="alternateBounds" />
          </mxGeometry>
        </mxCell>
        <mxCell id="ES_0mSyxqrA8o74wXQu3-101" value="" style="shape=partialRectangle;html=1;whiteSpace=wrap;connectable=0;strokeColor=inherit;overflow=hidden;fillColor=none;top=0;left=0;bottom=0;right=0;pointerEvents=1;" vertex="1" parent="ES_0mSyxqrA8o74wXQu3-98">
          <mxGeometry x="133" width="67" height="22" as="geometry">
            <mxRectangle width="67" height="22" as="alternateBounds" />
          </mxGeometry>
        </mxCell>
        <mxCell id="ES_0mSyxqrA8o74wXQu3-103" value="" style="shape=table;startSize=0;container=1;collapsible=0;childLayout=tableLayout;" vertex="1" parent="1">
          <mxGeometry x="480" y="40" width="200" height="137" as="geometry" />
        </mxCell>
        <mxCell id="ES_0mSyxqrA8o74wXQu3-104" value="" style="shape=tableRow;horizontal=0;startSize=0;swimlaneHead=0;swimlaneBody=0;strokeColor=inherit;top=0;left=0;bottom=0;right=0;collapsible=0;dropTarget=0;fillColor=none;points=[[0,0.5],[1,0.5]];portConstraint=eastwest;" vertex="1" parent="ES_0mSyxqrA8o74wXQu3-103">
          <mxGeometry width="200" height="22" as="geometry" />
        </mxCell>
        <mxCell id="ES_0mSyxqrA8o74wXQu3-105" value="Name" style="shape=partialRectangle;html=1;whiteSpace=wrap;connectable=0;strokeColor=#666666;overflow=hidden;fillColor=#f5f5f5;top=0;left=0;bottom=0;right=0;pointerEvents=1;fontColor=#333333;" vertex="1" parent="ES_0mSyxqrA8o74wXQu3-104">
          <mxGeometry width="67" height="22" as="geometry">
            <mxRectangle width="67" height="22" as="alternateBounds" />
          </mxGeometry>
        </mxCell>
        <mxCell id="ES_0mSyxqrA8o74wXQu3-106" value="Gender" style="shape=partialRectangle;html=1;whiteSpace=wrap;connectable=0;strokeColor=#666666;overflow=hidden;fillColor=#f5f5f5;top=0;left=0;bottom=0;right=0;pointerEvents=1;fontColor=#333333;" vertex="1" parent="ES_0mSyxqrA8o74wXQu3-104">
          <mxGeometry x="67" width="66" height="22" as="geometry">
            <mxRectangle width="66" height="22" as="alternateBounds" />
          </mxGeometry>
        </mxCell>
        <mxCell id="ES_0mSyxqrA8o74wXQu3-107" value="Age" style="shape=partialRectangle;html=1;whiteSpace=wrap;connectable=0;strokeColor=#666666;overflow=hidden;fillColor=#f5f5f5;top=0;left=0;bottom=0;right=0;pointerEvents=1;fontColor=#333333;" vertex="1" parent="ES_0mSyxqrA8o74wXQu3-104">
          <mxGeometry x="133" width="67" height="22" as="geometry">
            <mxRectangle width="67" height="22" as="alternateBounds" />
          </mxGeometry>
        </mxCell>
        <mxCell id="ES_0mSyxqrA8o74wXQu3-108" value="" style="shape=tableRow;horizontal=0;startSize=0;swimlaneHead=0;swimlaneBody=0;strokeColor=inherit;top=0;left=0;bottom=0;right=0;collapsible=0;dropTarget=0;fillColor=none;points=[[0,0.5],[1,0.5]];portConstraint=eastwest;" vertex="1" parent="ES_0mSyxqrA8o74wXQu3-103">
          <mxGeometry y="22" width="200" height="28" as="geometry" />
        </mxCell>
        <mxCell id="ES_0mSyxqrA8o74wXQu3-109" value="Alex" style="shape=partialRectangle;html=1;whiteSpace=wrap;connectable=0;strokeColor=inherit;overflow=hidden;fillColor=none;top=0;left=0;bottom=0;right=0;pointerEvents=1;" vertex="1" parent="ES_0mSyxqrA8o74wXQu3-108">
          <mxGeometry width="67" height="28" as="geometry">
            <mxRectangle width="67" height="28" as="alternateBounds" />
          </mxGeometry>
        </mxCell>
        <mxCell id="ES_0mSyxqrA8o74wXQu3-110" value="Male x 3" style="shape=partialRectangle;html=1;whiteSpace=wrap;connectable=0;strokeColor=inherit;overflow=hidden;fillColor=none;top=0;left=0;bottom=0;right=0;pointerEvents=1;" vertex="1" parent="ES_0mSyxqrA8o74wXQu3-108">
          <mxGeometry x="67" width="66" height="28" as="geometry">
            <mxRectangle width="66" height="28" as="alternateBounds" />
          </mxGeometry>
        </mxCell>
        <mxCell id="ES_0mSyxqrA8o74wXQu3-111" value="12 x 5" style="shape=partialRectangle;html=1;whiteSpace=wrap;connectable=0;strokeColor=inherit;overflow=hidden;fillColor=none;top=0;left=0;bottom=0;right=0;pointerEvents=1;" vertex="1" parent="ES_0mSyxqrA8o74wXQu3-108">
          <mxGeometry x="133" width="67" height="28" as="geometry">
            <mxRectangle width="67" height="28" as="alternateBounds" />
          </mxGeometry>
        </mxCell>
        <mxCell id="ES_0mSyxqrA8o74wXQu3-112" value="" style="shape=tableRow;horizontal=0;startSize=0;swimlaneHead=0;swimlaneBody=0;strokeColor=inherit;top=0;left=0;bottom=0;right=0;collapsible=0;dropTarget=0;fillColor=none;points=[[0,0.5],[1,0.5]];portConstraint=eastwest;" vertex="1" parent="ES_0mSyxqrA8o74wXQu3-103">
          <mxGeometry y="50" width="200" height="22" as="geometry" />
        </mxCell>
        <mxCell id="ES_0mSyxqrA8o74wXQu3-113" value="Andre" style="shape=partialRectangle;html=1;whiteSpace=wrap;connectable=0;strokeColor=#b85450;overflow=hidden;fillColor=#f8cecc;top=0;left=0;bottom=0;right=0;pointerEvents=1;" vertex="1" parent="ES_0mSyxqrA8o74wXQu3-112">
          <mxGeometry width="67" height="22" as="geometry">
            <mxRectangle width="67" height="22" as="alternateBounds" />
          </mxGeometry>
        </mxCell>
        <mxCell id="ES_0mSyxqrA8o74wXQu3-114" value="Female x 1" style="shape=partialRectangle;html=1;whiteSpace=wrap;connectable=0;strokeColor=inherit;overflow=hidden;fillColor=none;top=0;left=0;bottom=0;right=0;pointerEvents=1;" vertex="1" parent="ES_0mSyxqrA8o74wXQu3-112">
          <mxGeometry x="67" width="66" height="22" as="geometry">
            <mxRectangle width="66" height="22" as="alternateBounds" />
          </mxGeometry>
        </mxCell>
        <mxCell id="ES_0mSyxqrA8o74wXQu3-115" value="" style="shape=partialRectangle;html=1;whiteSpace=wrap;connectable=0;strokeColor=inherit;overflow=hidden;fillColor=none;top=0;left=0;bottom=0;right=0;pointerEvents=1;" vertex="1" parent="ES_0mSyxqrA8o74wXQu3-112">
          <mxGeometry x="133" width="67" height="22" as="geometry">
            <mxRectangle width="67" height="22" as="alternateBounds" />
          </mxGeometry>
        </mxCell>
        <mxCell id="ES_0mSyxqrA8o74wXQu3-116" value="" style="shape=tableRow;horizontal=0;startSize=0;swimlaneHead=0;swimlaneBody=0;strokeColor=inherit;top=0;left=0;bottom=0;right=0;collapsible=0;dropTarget=0;fillColor=none;points=[[0,0.5],[1,0.5]];portConstraint=eastwest;" vertex="1" parent="ES_0mSyxqrA8o74wXQu3-103">
          <mxGeometry y="72" width="200" height="22" as="geometry" />
        </mxCell>
        <mxCell id="ES_0mSyxqrA8o74wXQu3-117" value="Brian" style="shape=partialRectangle;html=1;whiteSpace=wrap;connectable=0;strokeColor=inherit;overflow=hidden;fillColor=none;top=0;left=0;bottom=0;right=0;pointerEvents=1;" vertex="1" parent="ES_0mSyxqrA8o74wXQu3-116">
          <mxGeometry width="67" height="22" as="geometry">
            <mxRectangle width="67" height="22" as="alternateBounds" />
          </mxGeometry>
        </mxCell>
        <mxCell id="ES_0mSyxqrA8o74wXQu3-118" value="Male x 1" style="shape=partialRectangle;html=1;whiteSpace=wrap;connectable=0;strokeColor=inherit;overflow=hidden;fillColor=none;top=0;left=0;bottom=0;right=0;pointerEvents=1;" vertex="1" parent="ES_0mSyxqrA8o74wXQu3-116">
          <mxGeometry x="67" width="66" height="22" as="geometry">
            <mxRectangle width="66" height="22" as="alternateBounds" />
          </mxGeometry>
        </mxCell>
        <mxCell id="ES_0mSyxqrA8o74wXQu3-119" value="" style="shape=partialRectangle;html=1;whiteSpace=wrap;connectable=0;strokeColor=inherit;overflow=hidden;fillColor=none;top=0;left=0;bottom=0;right=0;pointerEvents=1;" vertex="1" parent="ES_0mSyxqrA8o74wXQu3-116">
          <mxGeometry x="133" width="67" height="22" as="geometry">
            <mxRectangle width="67" height="22" as="alternateBounds" />
          </mxGeometry>
        </mxCell>
        <mxCell id="ES_0mSyxqrA8o74wXQu3-120" value="" style="shape=tableRow;horizontal=0;startSize=0;swimlaneHead=0;swimlaneBody=0;strokeColor=inherit;top=0;left=0;bottom=0;right=0;collapsible=0;dropTarget=0;fillColor=none;points=[[0,0.5],[1,0.5]];portConstraint=eastwest;" vertex="1" parent="ES_0mSyxqrA8o74wXQu3-103">
          <mxGeometry y="94" width="200" height="21" as="geometry" />
        </mxCell>
        <mxCell id="ES_0mSyxqrA8o74wXQu3-121" value="Mary" style="shape=partialRectangle;html=1;whiteSpace=wrap;connectable=0;strokeColor=inherit;overflow=hidden;fillColor=none;top=0;left=0;bottom=0;right=0;pointerEvents=1;" vertex="1" parent="ES_0mSyxqrA8o74wXQu3-120">
          <mxGeometry width="67" height="21" as="geometry">
            <mxRectangle width="67" height="21" as="alternateBounds" />
          </mxGeometry>
        </mxCell>
        <mxCell id="ES_0mSyxqrA8o74wXQu3-122" value="" style="shape=partialRectangle;html=1;whiteSpace=wrap;connectable=0;strokeColor=inherit;overflow=hidden;fillColor=none;top=0;left=0;bottom=0;right=0;pointerEvents=1;" vertex="1" parent="ES_0mSyxqrA8o74wXQu3-120">
          <mxGeometry x="67" width="66" height="21" as="geometry">
            <mxRectangle width="66" height="21" as="alternateBounds" />
          </mxGeometry>
        </mxCell>
        <mxCell id="ES_0mSyxqrA8o74wXQu3-123" value="" style="shape=partialRectangle;html=1;whiteSpace=wrap;connectable=0;strokeColor=inherit;overflow=hidden;fillColor=none;top=0;left=0;bottom=0;right=0;pointerEvents=1;" vertex="1" parent="ES_0mSyxqrA8o74wXQu3-120">
          <mxGeometry x="133" width="67" height="21" as="geometry">
            <mxRectangle width="67" height="21" as="alternateBounds" />
          </mxGeometry>
        </mxCell>
        <mxCell id="ES_0mSyxqrA8o74wXQu3-124" value="" style="shape=tableRow;horizontal=0;startSize=0;swimlaneHead=0;swimlaneBody=0;strokeColor=inherit;top=0;left=0;bottom=0;right=0;collapsible=0;dropTarget=0;fillColor=none;points=[[0,0.5],[1,0.5]];portConstraint=eastwest;" vertex="1" parent="ES_0mSyxqrA8o74wXQu3-103">
          <mxGeometry y="115" width="200" height="22" as="geometry" />
        </mxCell>
        <mxCell id="ES_0mSyxqrA8o74wXQu3-125" value="Peter" style="shape=partialRectangle;html=1;whiteSpace=wrap;connectable=0;strokeColor=inherit;overflow=hidden;fillColor=none;top=0;left=0;bottom=0;right=0;pointerEvents=1;" vertex="1" parent="ES_0mSyxqrA8o74wXQu3-124">
          <mxGeometry width="67" height="22" as="geometry">
            <mxRectangle width="67" height="22" as="alternateBounds" />
          </mxGeometry>
        </mxCell>
        <mxCell id="ES_0mSyxqrA8o74wXQu3-126" value="" style="shape=partialRectangle;html=1;whiteSpace=wrap;connectable=0;strokeColor=inherit;overflow=hidden;fillColor=none;top=0;left=0;bottom=0;right=0;pointerEvents=1;" vertex="1" parent="ES_0mSyxqrA8o74wXQu3-124">
          <mxGeometry x="67" width="66" height="22" as="geometry">
            <mxRectangle width="66" height="22" as="alternateBounds" />
          </mxGeometry>
        </mxCell>
        <mxCell id="ES_0mSyxqrA8o74wXQu3-127" value="" style="shape=partialRectangle;html=1;whiteSpace=wrap;connectable=0;strokeColor=inherit;overflow=hidden;fillColor=none;top=0;left=0;bottom=0;right=0;pointerEvents=1;" vertex="1" parent="ES_0mSyxqrA8o74wXQu3-124">
          <mxGeometry x="133" width="67" height="22" as="geometry">
            <mxRectangle width="67" height="22" as="alternateBounds" />
          </mxGeometry>
        </mxCell>
        <mxCell id="ES_0mSyxqrA8o74wXQu3-128" value="" style="shape=table;startSize=0;container=1;collapsible=0;childLayout=tableLayout;" vertex="1" parent="1">
          <mxGeometry x="480" y="200" width="200" height="130" as="geometry" />
        </mxCell>
        <mxCell id="ES_0mSyxqrA8o74wXQu3-129" value="" style="shape=tableRow;horizontal=0;startSize=0;swimlaneHead=0;swimlaneBody=0;strokeColor=inherit;top=0;left=0;bottom=0;right=0;collapsible=0;dropTarget=0;fillColor=none;points=[[0,0.5],[1,0.5]];portConstraint=eastwest;" vertex="1" parent="ES_0mSyxqrA8o74wXQu3-128">
          <mxGeometry width="200" height="22" as="geometry" />
        </mxCell>
        <mxCell id="ES_0mSyxqrA8o74wXQu3-130" value="Name" style="shape=partialRectangle;html=1;whiteSpace=wrap;connectable=0;strokeColor=#666666;overflow=hidden;fillColor=#f5f5f5;top=0;left=0;bottom=0;right=0;pointerEvents=1;fontColor=#333333;" vertex="1" parent="ES_0mSyxqrA8o74wXQu3-129">
          <mxGeometry width="67" height="22" as="geometry">
            <mxRectangle width="67" height="22" as="alternateBounds" />
          </mxGeometry>
        </mxCell>
        <mxCell id="ES_0mSyxqrA8o74wXQu3-131" value="Gender" style="shape=partialRectangle;html=1;whiteSpace=wrap;connectable=0;strokeColor=#666666;overflow=hidden;fillColor=#f5f5f5;top=0;left=0;bottom=0;right=0;pointerEvents=1;fontColor=#333333;" vertex="1" parent="ES_0mSyxqrA8o74wXQu3-129">
          <mxGeometry x="67" width="66" height="22" as="geometry">
            <mxRectangle width="66" height="22" as="alternateBounds" />
          </mxGeometry>
        </mxCell>
        <mxCell id="ES_0mSyxqrA8o74wXQu3-132" value="Age" style="shape=partialRectangle;html=1;whiteSpace=wrap;connectable=0;strokeColor=#666666;overflow=hidden;fillColor=#f5f5f5;top=0;left=0;bottom=0;right=0;pointerEvents=1;fontColor=#333333;" vertex="1" parent="ES_0mSyxqrA8o74wXQu3-129">
          <mxGeometry x="133" width="67" height="22" as="geometry">
            <mxRectangle width="67" height="22" as="alternateBounds" />
          </mxGeometry>
        </mxCell>
        <mxCell id="ES_0mSyxqrA8o74wXQu3-133" value="" style="shape=tableRow;horizontal=0;startSize=0;swimlaneHead=0;swimlaneBody=0;strokeColor=inherit;top=0;left=0;bottom=0;right=0;collapsible=0;dropTarget=0;fillColor=none;points=[[0,0.5],[1,0.5]];portConstraint=eastwest;" vertex="1" parent="ES_0mSyxqrA8o74wXQu3-128">
          <mxGeometry y="22" width="200" height="21" as="geometry" />
        </mxCell>
        <mxCell id="ES_0mSyxqrA8o74wXQu3-134" value="Stacy" style="shape=partialRectangle;html=1;whiteSpace=wrap;connectable=0;strokeColor=inherit;overflow=hidden;fillColor=none;top=0;left=0;bottom=0;right=0;pointerEvents=1;" vertex="1" parent="ES_0mSyxqrA8o74wXQu3-133">
          <mxGeometry width="67" height="21" as="geometry">
            <mxRectangle width="67" height="21" as="alternateBounds" />
          </mxGeometry>
        </mxCell>
        <mxCell id="ES_0mSyxqrA8o74wXQu3-135" value="Female x 1" style="shape=partialRectangle;html=1;whiteSpace=wrap;connectable=0;strokeColor=inherit;overflow=hidden;fillColor=none;top=0;left=0;bottom=0;right=0;pointerEvents=1;" vertex="1" parent="ES_0mSyxqrA8o74wXQu3-133">
          <mxGeometry x="67" width="66" height="21" as="geometry">
            <mxRectangle width="66" height="21" as="alternateBounds" />
          </mxGeometry>
        </mxCell>
        <mxCell id="ES_0mSyxqrA8o74wXQu3-136" value="12 x 3" style="shape=partialRectangle;html=1;whiteSpace=wrap;connectable=0;strokeColor=inherit;overflow=hidden;fillColor=none;top=0;left=0;bottom=0;right=0;pointerEvents=1;" vertex="1" parent="ES_0mSyxqrA8o74wXQu3-133">
          <mxGeometry x="133" width="67" height="21" as="geometry">
            <mxRectangle width="67" height="21" as="alternateBounds" />
          </mxGeometry>
        </mxCell>
        <mxCell id="ES_0mSyxqrA8o74wXQu3-137" value="" style="shape=tableRow;horizontal=0;startSize=0;swimlaneHead=0;swimlaneBody=0;strokeColor=inherit;top=0;left=0;bottom=0;right=0;collapsible=0;dropTarget=0;fillColor=none;points=[[0,0.5],[1,0.5]];portConstraint=eastwest;" vertex="1" parent="ES_0mSyxqrA8o74wXQu3-128">
          <mxGeometry y="43" width="200" height="22" as="geometry" />
        </mxCell>
        <mxCell id="ES_0mSyxqrA8o74wXQu3-138" value="Steve" style="shape=partialRectangle;html=1;whiteSpace=wrap;connectable=0;strokeColor=inherit;overflow=hidden;fillColor=none;top=0;left=0;bottom=0;right=0;pointerEvents=1;" vertex="1" parent="ES_0mSyxqrA8o74wXQu3-137">
          <mxGeometry width="67" height="22" as="geometry">
            <mxRectangle width="67" height="22" as="alternateBounds" />
          </mxGeometry>
        </mxCell>
        <mxCell id="ES_0mSyxqrA8o74wXQu3-139" value="Male x 2" style="shape=partialRectangle;html=1;whiteSpace=wrap;connectable=0;strokeColor=inherit;overflow=hidden;fillColor=none;top=0;left=0;bottom=0;right=0;pointerEvents=1;" vertex="1" parent="ES_0mSyxqrA8o74wXQu3-137">
          <mxGeometry x="67" width="66" height="22" as="geometry">
            <mxRectangle width="66" height="22" as="alternateBounds" />
          </mxGeometry>
        </mxCell>
        <mxCell id="ES_0mSyxqrA8o74wXQu3-140" value="" style="shape=partialRectangle;html=1;whiteSpace=wrap;connectable=0;strokeColor=inherit;overflow=hidden;fillColor=none;top=0;left=0;bottom=0;right=0;pointerEvents=1;" vertex="1" parent="ES_0mSyxqrA8o74wXQu3-137">
          <mxGeometry x="133" width="67" height="22" as="geometry">
            <mxRectangle width="67" height="22" as="alternateBounds" />
          </mxGeometry>
        </mxCell>
        <mxCell id="ES_0mSyxqrA8o74wXQu3-141" value="" style="shape=tableRow;horizontal=0;startSize=0;swimlaneHead=0;swimlaneBody=0;strokeColor=inherit;top=0;left=0;bottom=0;right=0;collapsible=0;dropTarget=0;fillColor=none;points=[[0,0.5],[1,0.5]];portConstraint=eastwest;" vertex="1" parent="ES_0mSyxqrA8o74wXQu3-128">
          <mxGeometry y="65" width="200" height="22" as="geometry" />
        </mxCell>
        <mxCell id="ES_0mSyxqrA8o74wXQu3-142" value="Zack" style="shape=partialRectangle;html=1;whiteSpace=wrap;connectable=0;strokeColor=inherit;overflow=hidden;fillColor=none;top=0;left=0;bottom=0;right=0;pointerEvents=1;" vertex="1" parent="ES_0mSyxqrA8o74wXQu3-141">
          <mxGeometry width="67" height="22" as="geometry">
            <mxRectangle width="67" height="22" as="alternateBounds" />
          </mxGeometry>
        </mxCell>
        <mxCell id="ES_0mSyxqrA8o74wXQu3-143" value="" style="shape=partialRectangle;html=1;whiteSpace=wrap;connectable=0;strokeColor=inherit;overflow=hidden;fillColor=none;top=0;left=0;bottom=0;right=0;pointerEvents=1;" vertex="1" parent="ES_0mSyxqrA8o74wXQu3-141">
          <mxGeometry x="67" width="66" height="22" as="geometry">
            <mxRectangle width="66" height="22" as="alternateBounds" />
          </mxGeometry>
        </mxCell>
        <mxCell id="ES_0mSyxqrA8o74wXQu3-144" value="" style="shape=partialRectangle;html=1;whiteSpace=wrap;connectable=0;strokeColor=inherit;overflow=hidden;fillColor=none;top=0;left=0;bottom=0;right=0;pointerEvents=1;" vertex="1" parent="ES_0mSyxqrA8o74wXQu3-141">
          <mxGeometry x="133" width="67" height="22" as="geometry">
            <mxRectangle width="67" height="22" as="alternateBounds" />
          </mxGeometry>
        </mxCell>
        <mxCell id="ES_0mSyxqrA8o74wXQu3-145" value="" style="shape=tableRow;horizontal=0;startSize=0;swimlaneHead=0;swimlaneBody=0;strokeColor=inherit;top=0;left=0;bottom=0;right=0;collapsible=0;dropTarget=0;fillColor=none;points=[[0,0.5],[1,0.5]];portConstraint=eastwest;" vertex="1" parent="ES_0mSyxqrA8o74wXQu3-128">
          <mxGeometry y="87" width="200" height="21" as="geometry" />
        </mxCell>
        <mxCell id="ES_0mSyxqrA8o74wXQu3-146" value="" style="shape=partialRectangle;html=1;whiteSpace=wrap;connectable=0;strokeColor=inherit;overflow=hidden;fillColor=none;top=0;left=0;bottom=0;right=0;pointerEvents=1;" vertex="1" parent="ES_0mSyxqrA8o74wXQu3-145">
          <mxGeometry width="67" height="21" as="geometry">
            <mxRectangle width="67" height="21" as="alternateBounds" />
          </mxGeometry>
        </mxCell>
        <mxCell id="ES_0mSyxqrA8o74wXQu3-147" value="" style="shape=partialRectangle;html=1;whiteSpace=wrap;connectable=0;strokeColor=inherit;overflow=hidden;fillColor=none;top=0;left=0;bottom=0;right=0;pointerEvents=1;" vertex="1" parent="ES_0mSyxqrA8o74wXQu3-145">
          <mxGeometry x="67" width="66" height="21" as="geometry">
            <mxRectangle width="66" height="21" as="alternateBounds" />
          </mxGeometry>
        </mxCell>
        <mxCell id="ES_0mSyxqrA8o74wXQu3-148" value="" style="shape=partialRectangle;html=1;whiteSpace=wrap;connectable=0;strokeColor=inherit;overflow=hidden;fillColor=none;top=0;left=0;bottom=0;right=0;pointerEvents=1;" vertex="1" parent="ES_0mSyxqrA8o74wXQu3-145">
          <mxGeometry x="133" width="67" height="21" as="geometry">
            <mxRectangle width="67" height="21" as="alternateBounds" />
          </mxGeometry>
        </mxCell>
        <mxCell id="ES_0mSyxqrA8o74wXQu3-149" value="" style="shape=tableRow;horizontal=0;startSize=0;swimlaneHead=0;swimlaneBody=0;strokeColor=inherit;top=0;left=0;bottom=0;right=0;collapsible=0;dropTarget=0;fillColor=none;points=[[0,0.5],[1,0.5]];portConstraint=eastwest;" vertex="1" parent="ES_0mSyxqrA8o74wXQu3-128">
          <mxGeometry y="108" width="200" height="22" as="geometry" />
        </mxCell>
        <mxCell id="ES_0mSyxqrA8o74wXQu3-150" value="" style="shape=partialRectangle;html=1;whiteSpace=wrap;connectable=0;strokeColor=inherit;overflow=hidden;fillColor=none;top=0;left=0;bottom=0;right=0;pointerEvents=1;" vertex="1" parent="ES_0mSyxqrA8o74wXQu3-149">
          <mxGeometry width="67" height="22" as="geometry">
            <mxRectangle width="67" height="22" as="alternateBounds" />
          </mxGeometry>
        </mxCell>
        <mxCell id="ES_0mSyxqrA8o74wXQu3-151" value="" style="shape=partialRectangle;html=1;whiteSpace=wrap;connectable=0;strokeColor=inherit;overflow=hidden;fillColor=none;top=0;left=0;bottom=0;right=0;pointerEvents=1;" vertex="1" parent="ES_0mSyxqrA8o74wXQu3-149">
          <mxGeometry x="67" width="66" height="22" as="geometry">
            <mxRectangle width="66" height="22" as="alternateBounds" />
          </mxGeometry>
        </mxCell>
        <mxCell id="ES_0mSyxqrA8o74wXQu3-152" value="" style="shape=partialRectangle;html=1;whiteSpace=wrap;connectable=0;strokeColor=inherit;overflow=hidden;fillColor=none;top=0;left=0;bottom=0;right=0;pointerEvents=1;" vertex="1" parent="ES_0mSyxqrA8o74wXQu3-149">
          <mxGeometry x="133" width="67" height="22" as="geometry">
            <mxRectangle width="67" height="22" as="alternateBounds" />
          </mxGeometry>
        </mxCell>
        <mxCell id="ES_0mSyxqrA8o74wXQu3-153" value="OPTIMIZE TABLE Student FULL" style="rounded=1;whiteSpace=wrap;html=1;" vertex="1" parent="1">
          <mxGeometry x="720" y="159" width="120" height="60" as="geometry" />
        </mxCell>
        <mxCell id="ES_0mSyxqrA8o74wXQu3-154" value="" style="shape=table;startSize=0;container=1;collapsible=0;childLayout=tableLayout;" vertex="1" parent="1">
          <mxGeometry x="880" y="40" width="200" height="137" as="geometry" />
        </mxCell>
        <mxCell id="ES_0mSyxqrA8o74wXQu3-155" value="" style="shape=tableRow;horizontal=0;startSize=0;swimlaneHead=0;swimlaneBody=0;strokeColor=inherit;top=0;left=0;bottom=0;right=0;collapsible=0;dropTarget=0;fillColor=none;points=[[0,0.5],[1,0.5]];portConstraint=eastwest;" vertex="1" parent="ES_0mSyxqrA8o74wXQu3-154">
          <mxGeometry width="200" height="22" as="geometry" />
        </mxCell>
        <mxCell id="ES_0mSyxqrA8o74wXQu3-156" value="Name" style="shape=partialRectangle;html=1;whiteSpace=wrap;connectable=0;strokeColor=#666666;overflow=hidden;fillColor=#f5f5f5;top=0;left=0;bottom=0;right=0;pointerEvents=1;fontColor=#333333;" vertex="1" parent="ES_0mSyxqrA8o74wXQu3-155">
          <mxGeometry width="67" height="22" as="geometry">
            <mxRectangle width="67" height="22" as="alternateBounds" />
          </mxGeometry>
        </mxCell>
        <mxCell id="ES_0mSyxqrA8o74wXQu3-157" value="Gender" style="shape=partialRectangle;html=1;whiteSpace=wrap;connectable=0;strokeColor=#666666;overflow=hidden;fillColor=#f5f5f5;top=0;left=0;bottom=0;right=0;pointerEvents=1;fontColor=#333333;" vertex="1" parent="ES_0mSyxqrA8o74wXQu3-155">
          <mxGeometry x="67" width="66" height="22" as="geometry">
            <mxRectangle width="66" height="22" as="alternateBounds" />
          </mxGeometry>
        </mxCell>
        <mxCell id="ES_0mSyxqrA8o74wXQu3-158" value="Age" style="shape=partialRectangle;html=1;whiteSpace=wrap;connectable=0;strokeColor=#666666;overflow=hidden;fillColor=#f5f5f5;top=0;left=0;bottom=0;right=0;pointerEvents=1;fontColor=#333333;" vertex="1" parent="ES_0mSyxqrA8o74wXQu3-155">
          <mxGeometry x="133" width="67" height="22" as="geometry">
            <mxRectangle width="67" height="22" as="alternateBounds" />
          </mxGeometry>
        </mxCell>
        <mxCell id="ES_0mSyxqrA8o74wXQu3-159" value="" style="shape=tableRow;horizontal=0;startSize=0;swimlaneHead=0;swimlaneBody=0;strokeColor=inherit;top=0;left=0;bottom=0;right=0;collapsible=0;dropTarget=0;fillColor=none;points=[[0,0.5],[1,0.5]];portConstraint=eastwest;" vertex="1" parent="ES_0mSyxqrA8o74wXQu3-154">
          <mxGeometry y="22" width="200" height="28" as="geometry" />
        </mxCell>
        <mxCell id="ES_0mSyxqrA8o74wXQu3-160" value="Alex" style="shape=partialRectangle;html=1;whiteSpace=wrap;connectable=0;strokeColor=inherit;overflow=hidden;fillColor=none;top=0;left=0;bottom=0;right=0;pointerEvents=1;" vertex="1" parent="ES_0mSyxqrA8o74wXQu3-159">
          <mxGeometry width="67" height="28" as="geometry">
            <mxRectangle width="67" height="28" as="alternateBounds" />
          </mxGeometry>
        </mxCell>
        <mxCell id="ES_0mSyxqrA8o74wXQu3-161" value="Male x 2" style="shape=partialRectangle;html=1;whiteSpace=wrap;connectable=0;strokeColor=inherit;overflow=hidden;fillColor=none;top=0;left=0;bottom=0;right=0;pointerEvents=1;" vertex="1" parent="ES_0mSyxqrA8o74wXQu3-159">
          <mxGeometry x="67" width="66" height="28" as="geometry">
            <mxRectangle width="66" height="28" as="alternateBounds" />
          </mxGeometry>
        </mxCell>
        <mxCell id="ES_0mSyxqrA8o74wXQu3-162" value="12 x 5" style="shape=partialRectangle;html=1;whiteSpace=wrap;connectable=0;strokeColor=inherit;overflow=hidden;fillColor=none;top=0;left=0;bottom=0;right=0;pointerEvents=1;" vertex="1" parent="ES_0mSyxqrA8o74wXQu3-159">
          <mxGeometry x="133" width="67" height="28" as="geometry">
            <mxRectangle width="67" height="28" as="alternateBounds" />
          </mxGeometry>
        </mxCell>
        <mxCell id="ES_0mSyxqrA8o74wXQu3-163" value="" style="shape=tableRow;horizontal=0;startSize=0;swimlaneHead=0;swimlaneBody=0;strokeColor=inherit;top=0;left=0;bottom=0;right=0;collapsible=0;dropTarget=0;fillColor=none;points=[[0,0.5],[1,0.5]];portConstraint=eastwest;" vertex="1" parent="ES_0mSyxqrA8o74wXQu3-154">
          <mxGeometry y="50" width="200" height="22" as="geometry" />
        </mxCell>
        <mxCell id="ES_0mSyxqrA8o74wXQu3-164" value="Brian" style="shape=partialRectangle;html=1;whiteSpace=wrap;connectable=0;overflow=hidden;top=0;left=0;bottom=0;right=0;pointerEvents=1;" vertex="1" parent="ES_0mSyxqrA8o74wXQu3-163">
          <mxGeometry width="67" height="22" as="geometry">
            <mxRectangle width="67" height="22" as="alternateBounds" />
          </mxGeometry>
        </mxCell>
        <mxCell id="ES_0mSyxqrA8o74wXQu3-165" value="Female x 1" style="shape=partialRectangle;html=1;whiteSpace=wrap;connectable=0;strokeColor=inherit;overflow=hidden;fillColor=none;top=0;left=0;bottom=0;right=0;pointerEvents=1;" vertex="1" parent="ES_0mSyxqrA8o74wXQu3-163">
          <mxGeometry x="67" width="66" height="22" as="geometry">
            <mxRectangle width="66" height="22" as="alternateBounds" />
          </mxGeometry>
        </mxCell>
        <mxCell id="ES_0mSyxqrA8o74wXQu3-166" value="" style="shape=partialRectangle;html=1;whiteSpace=wrap;connectable=0;strokeColor=inherit;overflow=hidden;fillColor=none;top=0;left=0;bottom=0;right=0;pointerEvents=1;" vertex="1" parent="ES_0mSyxqrA8o74wXQu3-163">
          <mxGeometry x="133" width="67" height="22" as="geometry">
            <mxRectangle width="67" height="22" as="alternateBounds" />
          </mxGeometry>
        </mxCell>
        <mxCell id="ES_0mSyxqrA8o74wXQu3-167" value="" style="shape=tableRow;horizontal=0;startSize=0;swimlaneHead=0;swimlaneBody=0;strokeColor=inherit;top=0;left=0;bottom=0;right=0;collapsible=0;dropTarget=0;fillColor=none;points=[[0,0.5],[1,0.5]];portConstraint=eastwest;" vertex="1" parent="ES_0mSyxqrA8o74wXQu3-154">
          <mxGeometry y="72" width="200" height="22" as="geometry" />
        </mxCell>
        <mxCell id="ES_0mSyxqrA8o74wXQu3-168" value="Mary" style="shape=partialRectangle;html=1;whiteSpace=wrap;connectable=0;strokeColor=inherit;overflow=hidden;fillColor=none;top=0;left=0;bottom=0;right=0;pointerEvents=1;" vertex="1" parent="ES_0mSyxqrA8o74wXQu3-167">
          <mxGeometry width="67" height="22" as="geometry">
            <mxRectangle width="67" height="22" as="alternateBounds" />
          </mxGeometry>
        </mxCell>
        <mxCell id="ES_0mSyxqrA8o74wXQu3-169" value="Male x 1" style="shape=partialRectangle;html=1;whiteSpace=wrap;connectable=0;strokeColor=inherit;overflow=hidden;fillColor=none;top=0;left=0;bottom=0;right=0;pointerEvents=1;" vertex="1" parent="ES_0mSyxqrA8o74wXQu3-167">
          <mxGeometry x="67" width="66" height="22" as="geometry">
            <mxRectangle width="66" height="22" as="alternateBounds" />
          </mxGeometry>
        </mxCell>
        <mxCell id="ES_0mSyxqrA8o74wXQu3-170" value="" style="shape=partialRectangle;html=1;whiteSpace=wrap;connectable=0;strokeColor=inherit;overflow=hidden;fillColor=none;top=0;left=0;bottom=0;right=0;pointerEvents=1;" vertex="1" parent="ES_0mSyxqrA8o74wXQu3-167">
          <mxGeometry x="133" width="67" height="22" as="geometry">
            <mxRectangle width="67" height="22" as="alternateBounds" />
          </mxGeometry>
        </mxCell>
        <mxCell id="ES_0mSyxqrA8o74wXQu3-171" value="" style="shape=tableRow;horizontal=0;startSize=0;swimlaneHead=0;swimlaneBody=0;strokeColor=inherit;top=0;left=0;bottom=0;right=0;collapsible=0;dropTarget=0;fillColor=none;points=[[0,0.5],[1,0.5]];portConstraint=eastwest;" vertex="1" parent="ES_0mSyxqrA8o74wXQu3-154">
          <mxGeometry y="94" width="200" height="21" as="geometry" />
        </mxCell>
        <mxCell id="ES_0mSyxqrA8o74wXQu3-172" value="Peter" style="shape=partialRectangle;html=1;whiteSpace=wrap;connectable=0;strokeColor=inherit;overflow=hidden;fillColor=none;top=0;left=0;bottom=0;right=0;pointerEvents=1;" vertex="1" parent="ES_0mSyxqrA8o74wXQu3-171">
          <mxGeometry width="67" height="21" as="geometry">
            <mxRectangle width="67" height="21" as="alternateBounds" />
          </mxGeometry>
        </mxCell>
        <mxCell id="ES_0mSyxqrA8o74wXQu3-173" value="Female x 1" style="shape=partialRectangle;html=1;whiteSpace=wrap;connectable=0;strokeColor=inherit;overflow=hidden;fillColor=none;top=0;left=0;bottom=0;right=0;pointerEvents=1;" vertex="1" parent="ES_0mSyxqrA8o74wXQu3-171">
          <mxGeometry x="67" width="66" height="21" as="geometry">
            <mxRectangle width="66" height="21" as="alternateBounds" />
          </mxGeometry>
        </mxCell>
        <mxCell id="ES_0mSyxqrA8o74wXQu3-174" value="" style="shape=partialRectangle;html=1;whiteSpace=wrap;connectable=0;strokeColor=inherit;overflow=hidden;fillColor=none;top=0;left=0;bottom=0;right=0;pointerEvents=1;" vertex="1" parent="ES_0mSyxqrA8o74wXQu3-171">
          <mxGeometry x="133" width="67" height="21" as="geometry">
            <mxRectangle width="67" height="21" as="alternateBounds" />
          </mxGeometry>
        </mxCell>
        <mxCell id="ES_0mSyxqrA8o74wXQu3-175" value="" style="shape=tableRow;horizontal=0;startSize=0;swimlaneHead=0;swimlaneBody=0;strokeColor=inherit;top=0;left=0;bottom=0;right=0;collapsible=0;dropTarget=0;fillColor=none;points=[[0,0.5],[1,0.5]];portConstraint=eastwest;" vertex="1" parent="ES_0mSyxqrA8o74wXQu3-154">
          <mxGeometry y="115" width="200" height="22" as="geometry" />
        </mxCell>
        <mxCell id="ES_0mSyxqrA8o74wXQu3-176" value="Stacy" style="shape=partialRectangle;html=1;whiteSpace=wrap;connectable=0;strokeColor=inherit;overflow=hidden;fillColor=none;top=0;left=0;bottom=0;right=0;pointerEvents=1;" vertex="1" parent="ES_0mSyxqrA8o74wXQu3-175">
          <mxGeometry width="67" height="22" as="geometry">
            <mxRectangle width="67" height="22" as="alternateBounds" />
          </mxGeometry>
        </mxCell>
        <mxCell id="ES_0mSyxqrA8o74wXQu3-177" value="" style="shape=partialRectangle;html=1;whiteSpace=wrap;connectable=0;strokeColor=inherit;overflow=hidden;fillColor=none;top=0;left=0;bottom=0;right=0;pointerEvents=1;" vertex="1" parent="ES_0mSyxqrA8o74wXQu3-175">
          <mxGeometry x="67" width="66" height="22" as="geometry">
            <mxRectangle width="66" height="22" as="alternateBounds" />
          </mxGeometry>
        </mxCell>
        <mxCell id="ES_0mSyxqrA8o74wXQu3-178" value="" style="shape=partialRectangle;html=1;whiteSpace=wrap;connectable=0;strokeColor=inherit;overflow=hidden;fillColor=none;top=0;left=0;bottom=0;right=0;pointerEvents=1;" vertex="1" parent="ES_0mSyxqrA8o74wXQu3-175">
          <mxGeometry x="133" width="67" height="22" as="geometry">
            <mxRectangle width="67" height="22" as="alternateBounds" />
          </mxGeometry>
        </mxCell>
        <mxCell id="ES_0mSyxqrA8o74wXQu3-179" value="" style="shape=table;startSize=0;container=1;collapsible=0;childLayout=tableLayout;" vertex="1" parent="1">
          <mxGeometry x="880" y="200" width="200" height="130" as="geometry" />
        </mxCell>
        <mxCell id="ES_0mSyxqrA8o74wXQu3-180" value="" style="shape=tableRow;horizontal=0;startSize=0;swimlaneHead=0;swimlaneBody=0;strokeColor=inherit;top=0;left=0;bottom=0;right=0;collapsible=0;dropTarget=0;fillColor=none;points=[[0,0.5],[1,0.5]];portConstraint=eastwest;" vertex="1" parent="ES_0mSyxqrA8o74wXQu3-179">
          <mxGeometry width="200" height="22" as="geometry" />
        </mxCell>
        <mxCell id="ES_0mSyxqrA8o74wXQu3-181" value="Name" style="shape=partialRectangle;html=1;whiteSpace=wrap;connectable=0;strokeColor=#666666;overflow=hidden;fillColor=#f5f5f5;top=0;left=0;bottom=0;right=0;pointerEvents=1;fontColor=#333333;" vertex="1" parent="ES_0mSyxqrA8o74wXQu3-180">
          <mxGeometry width="67" height="22" as="geometry">
            <mxRectangle width="67" height="22" as="alternateBounds" />
          </mxGeometry>
        </mxCell>
        <mxCell id="ES_0mSyxqrA8o74wXQu3-182" value="Gender" style="shape=partialRectangle;html=1;whiteSpace=wrap;connectable=0;strokeColor=#666666;overflow=hidden;fillColor=#f5f5f5;top=0;left=0;bottom=0;right=0;pointerEvents=1;fontColor=#333333;" vertex="1" parent="ES_0mSyxqrA8o74wXQu3-180">
          <mxGeometry x="67" width="66" height="22" as="geometry">
            <mxRectangle width="66" height="22" as="alternateBounds" />
          </mxGeometry>
        </mxCell>
        <mxCell id="ES_0mSyxqrA8o74wXQu3-183" value="Age" style="shape=partialRectangle;html=1;whiteSpace=wrap;connectable=0;strokeColor=#666666;overflow=hidden;fillColor=#f5f5f5;top=0;left=0;bottom=0;right=0;pointerEvents=1;fontColor=#333333;" vertex="1" parent="ES_0mSyxqrA8o74wXQu3-180">
          <mxGeometry x="133" width="67" height="22" as="geometry">
            <mxRectangle width="67" height="22" as="alternateBounds" />
          </mxGeometry>
        </mxCell>
        <mxCell id="ES_0mSyxqrA8o74wXQu3-184" value="" style="shape=tableRow;horizontal=0;startSize=0;swimlaneHead=0;swimlaneBody=0;strokeColor=inherit;top=0;left=0;bottom=0;right=0;collapsible=0;dropTarget=0;fillColor=none;points=[[0,0.5],[1,0.5]];portConstraint=eastwest;" vertex="1" parent="ES_0mSyxqrA8o74wXQu3-179">
          <mxGeometry y="22" width="200" height="21" as="geometry" />
        </mxCell>
        <mxCell id="ES_0mSyxqrA8o74wXQu3-185" value="Steve" style="shape=partialRectangle;html=1;whiteSpace=wrap;connectable=0;strokeColor=inherit;overflow=hidden;fillColor=none;top=0;left=0;bottom=0;right=0;pointerEvents=1;" vertex="1" parent="ES_0mSyxqrA8o74wXQu3-184">
          <mxGeometry width="67" height="21" as="geometry">
            <mxRectangle width="67" height="21" as="alternateBounds" />
          </mxGeometry>
        </mxCell>
        <mxCell id="ES_0mSyxqrA8o74wXQu3-186" value="Male x 2" style="shape=partialRectangle;html=1;whiteSpace=wrap;connectable=0;strokeColor=inherit;overflow=hidden;fillColor=none;top=0;left=0;bottom=0;right=0;pointerEvents=1;" vertex="1" parent="ES_0mSyxqrA8o74wXQu3-184">
          <mxGeometry x="67" width="66" height="21" as="geometry">
            <mxRectangle width="66" height="21" as="alternateBounds" />
          </mxGeometry>
        </mxCell>
        <mxCell id="ES_0mSyxqrA8o74wXQu3-187" value="12 x 2" style="shape=partialRectangle;html=1;whiteSpace=wrap;connectable=0;strokeColor=inherit;overflow=hidden;fillColor=none;top=0;left=0;bottom=0;right=0;pointerEvents=1;" vertex="1" parent="ES_0mSyxqrA8o74wXQu3-184">
          <mxGeometry x="133" width="67" height="21" as="geometry">
            <mxRectangle width="67" height="21" as="alternateBounds" />
          </mxGeometry>
        </mxCell>
        <mxCell id="ES_0mSyxqrA8o74wXQu3-188" value="" style="shape=tableRow;horizontal=0;startSize=0;swimlaneHead=0;swimlaneBody=0;strokeColor=inherit;top=0;left=0;bottom=0;right=0;collapsible=0;dropTarget=0;fillColor=none;points=[[0,0.5],[1,0.5]];portConstraint=eastwest;" vertex="1" parent="ES_0mSyxqrA8o74wXQu3-179">
          <mxGeometry y="43" width="200" height="22" as="geometry" />
        </mxCell>
        <mxCell id="ES_0mSyxqrA8o74wXQu3-189" value="Zack" style="shape=partialRectangle;html=1;whiteSpace=wrap;connectable=0;strokeColor=inherit;overflow=hidden;fillColor=none;top=0;left=0;bottom=0;right=0;pointerEvents=1;" vertex="1" parent="ES_0mSyxqrA8o74wXQu3-188">
          <mxGeometry width="67" height="22" as="geometry">
            <mxRectangle width="67" height="22" as="alternateBounds" />
          </mxGeometry>
        </mxCell>
        <mxCell id="ES_0mSyxqrA8o74wXQu3-190" value="" style="shape=partialRectangle;html=1;whiteSpace=wrap;connectable=0;strokeColor=inherit;overflow=hidden;fillColor=none;top=0;left=0;bottom=0;right=0;pointerEvents=1;" vertex="1" parent="ES_0mSyxqrA8o74wXQu3-188">
          <mxGeometry x="67" width="66" height="22" as="geometry">
            <mxRectangle width="66" height="22" as="alternateBounds" />
          </mxGeometry>
        </mxCell>
        <mxCell id="ES_0mSyxqrA8o74wXQu3-191" value="" style="shape=partialRectangle;html=1;whiteSpace=wrap;connectable=0;strokeColor=inherit;overflow=hidden;fillColor=none;top=0;left=0;bottom=0;right=0;pointerEvents=1;" vertex="1" parent="ES_0mSyxqrA8o74wXQu3-188">
          <mxGeometry x="133" width="67" height="22" as="geometry">
            <mxRectangle width="67" height="22" as="alternateBounds" />
          </mxGeometry>
        </mxCell>
        <mxCell id="ES_0mSyxqrA8o74wXQu3-192" value="" style="shape=tableRow;horizontal=0;startSize=0;swimlaneHead=0;swimlaneBody=0;strokeColor=inherit;top=0;left=0;bottom=0;right=0;collapsible=0;dropTarget=0;fillColor=none;points=[[0,0.5],[1,0.5]];portConstraint=eastwest;" vertex="1" parent="ES_0mSyxqrA8o74wXQu3-179">
          <mxGeometry y="65" width="200" height="22" as="geometry" />
        </mxCell>
        <mxCell id="ES_0mSyxqrA8o74wXQu3-193" value="" style="shape=partialRectangle;html=1;whiteSpace=wrap;connectable=0;strokeColor=inherit;overflow=hidden;fillColor=none;top=0;left=0;bottom=0;right=0;pointerEvents=1;" vertex="1" parent="ES_0mSyxqrA8o74wXQu3-192">
          <mxGeometry width="67" height="22" as="geometry">
            <mxRectangle width="67" height="22" as="alternateBounds" />
          </mxGeometry>
        </mxCell>
        <mxCell id="ES_0mSyxqrA8o74wXQu3-194" value="" style="shape=partialRectangle;html=1;whiteSpace=wrap;connectable=0;strokeColor=inherit;overflow=hidden;fillColor=none;top=0;left=0;bottom=0;right=0;pointerEvents=1;" vertex="1" parent="ES_0mSyxqrA8o74wXQu3-192">
          <mxGeometry x="67" width="66" height="22" as="geometry">
            <mxRectangle width="66" height="22" as="alternateBounds" />
          </mxGeometry>
        </mxCell>
        <mxCell id="ES_0mSyxqrA8o74wXQu3-195" value="" style="shape=partialRectangle;html=1;whiteSpace=wrap;connectable=0;strokeColor=inherit;overflow=hidden;fillColor=none;top=0;left=0;bottom=0;right=0;pointerEvents=1;" vertex="1" parent="ES_0mSyxqrA8o74wXQu3-192">
          <mxGeometry x="133" width="67" height="22" as="geometry">
            <mxRectangle width="67" height="22" as="alternateBounds" />
          </mxGeometry>
        </mxCell>
        <mxCell id="ES_0mSyxqrA8o74wXQu3-196" value="" style="shape=tableRow;horizontal=0;startSize=0;swimlaneHead=0;swimlaneBody=0;strokeColor=inherit;top=0;left=0;bottom=0;right=0;collapsible=0;dropTarget=0;fillColor=none;points=[[0,0.5],[1,0.5]];portConstraint=eastwest;" vertex="1" parent="ES_0mSyxqrA8o74wXQu3-179">
          <mxGeometry y="87" width="200" height="21" as="geometry" />
        </mxCell>
        <mxCell id="ES_0mSyxqrA8o74wXQu3-197" value="" style="shape=partialRectangle;html=1;whiteSpace=wrap;connectable=0;strokeColor=inherit;overflow=hidden;fillColor=none;top=0;left=0;bottom=0;right=0;pointerEvents=1;" vertex="1" parent="ES_0mSyxqrA8o74wXQu3-196">
          <mxGeometry width="67" height="21" as="geometry">
            <mxRectangle width="67" height="21" as="alternateBounds" />
          </mxGeometry>
        </mxCell>
        <mxCell id="ES_0mSyxqrA8o74wXQu3-198" value="" style="shape=partialRectangle;html=1;whiteSpace=wrap;connectable=0;strokeColor=inherit;overflow=hidden;fillColor=none;top=0;left=0;bottom=0;right=0;pointerEvents=1;" vertex="1" parent="ES_0mSyxqrA8o74wXQu3-196">
          <mxGeometry x="67" width="66" height="21" as="geometry">
            <mxRectangle width="66" height="21" as="alternateBounds" />
          </mxGeometry>
        </mxCell>
        <mxCell id="ES_0mSyxqrA8o74wXQu3-199" value="" style="shape=partialRectangle;html=1;whiteSpace=wrap;connectable=0;strokeColor=inherit;overflow=hidden;fillColor=none;top=0;left=0;bottom=0;right=0;pointerEvents=1;" vertex="1" parent="ES_0mSyxqrA8o74wXQu3-196">
          <mxGeometry x="133" width="67" height="21" as="geometry">
            <mxRectangle width="67" height="21" as="alternateBounds" />
          </mxGeometry>
        </mxCell>
        <mxCell id="ES_0mSyxqrA8o74wXQu3-200" value="" style="shape=tableRow;horizontal=0;startSize=0;swimlaneHead=0;swimlaneBody=0;strokeColor=inherit;top=0;left=0;bottom=0;right=0;collapsible=0;dropTarget=0;fillColor=none;points=[[0,0.5],[1,0.5]];portConstraint=eastwest;" vertex="1" parent="ES_0mSyxqrA8o74wXQu3-179">
          <mxGeometry y="108" width="200" height="22" as="geometry" />
        </mxCell>
        <mxCell id="ES_0mSyxqrA8o74wXQu3-201" value="" style="shape=partialRectangle;html=1;whiteSpace=wrap;connectable=0;strokeColor=inherit;overflow=hidden;fillColor=none;top=0;left=0;bottom=0;right=0;pointerEvents=1;" vertex="1" parent="ES_0mSyxqrA8o74wXQu3-200">
          <mxGeometry width="67" height="22" as="geometry">
            <mxRectangle width="67" height="22" as="alternateBounds" />
          </mxGeometry>
        </mxCell>
        <mxCell id="ES_0mSyxqrA8o74wXQu3-202" value="" style="shape=partialRectangle;html=1;whiteSpace=wrap;connectable=0;strokeColor=inherit;overflow=hidden;fillColor=none;top=0;left=0;bottom=0;right=0;pointerEvents=1;" vertex="1" parent="ES_0mSyxqrA8o74wXQu3-200">
          <mxGeometry x="67" width="66" height="22" as="geometry">
            <mxRectangle width="66" height="22" as="alternateBounds" />
          </mxGeometry>
        </mxCell>
        <mxCell id="ES_0mSyxqrA8o74wXQu3-203" value="" style="shape=partialRectangle;html=1;whiteSpace=wrap;connectable=0;strokeColor=inherit;overflow=hidden;fillColor=none;top=0;left=0;bottom=0;right=0;pointerEvents=1;" vertex="1" parent="ES_0mSyxqrA8o74wXQu3-200">
          <mxGeometry x="133" width="67" height="22" as="geometry">
            <mxRectangle width="67" height="22" as="alternateBounds" />
          </mxGeometry>
        </mxCell>
      </root>
    </mxGraphModel>
  </diagram>
  <diagram id="xkusIugz_ZrxvYrDrjBO" name="INSERT">
    <mxGraphModel dx="1034" dy="483" grid="1" gridSize="10" guides="1" tooltips="1" connect="1" arrows="1" fold="1" page="1" pageScale="1" pageWidth="1350" pageHeight="1200" math="0" shadow="0">
      <root>
        <mxCell id="0" />
        <mxCell id="1" parent="0" />
      </root>
    </mxGraphModel>
  </diagram>
</mxfile>
